<svg width="24" height="24" viewBox="0 0 24 24" fill="none" xmlns="http://www.w3.org/2000/svg">
<path d="M17.293 5.29306C17.6835 4.90256 18.3165 4.90254 18.707 5.29306C19.0974 5.68359 19.0975 6.31664 18.707 6.70712L13.4141 12.0001L18.707 17.2931C19.0974 17.6836 19.0975 18.3166 18.707 18.7071C18.3165 19.0976 17.6835 19.0975 17.293 18.7071L12 13.4142L6.70703 18.7071C6.31655 19.0976 5.6835 19.0975 5.29297 18.7071C4.90244 18.3166 4.90244 17.6836 5.29297 17.2931L10.5859 12.0001L5.29297 6.70712C4.90244 6.3166 4.90244 5.68358 5.29297 5.29306C5.68349 4.90256 6.31651 4.90254 6.70703 5.29306L12 10.586L17.293 5.29306Z" fill="white"/>
</svg>
